<svg xmlns="http://www.w3.org/2000/svg" viewBox="0 0 280 60" fill="none">
  <defs>
    <linearGradient id="grad2" x1="0%" y1="0%" x2="100%" y2="0%">
      <stop offset="0%" style="stop-color:#FF9933;stop-opacity:1" />
      <stop offset="100%" style="stop-color:#138808;stop-opacity:1" />
    </linearGradient>
  </defs>
  <!-- Icon: Upward chart with circle -->
  <circle cx="26" cy="30" r="22" stroke="url(#grad2)" stroke-width="2.5" fill="none"/>
  <rect x="14" y="34" width="5" height="10" rx="1" fill="#FF9933"/>
  <rect x="21" y="28" width="5" height="16" rx="1" fill="#FFFFFF" stroke="#ccc" stroke-width="0.3"/>
  <rect x="28" y="22" width="5" height="22" rx="1" fill="#138808"/>
  <rect x="35" y="16" width="5" height="28" rx="1" fill="url(#grad2)"/>
  <polyline points="16,32 24,24 32,28 40,14" stroke="url(#grad2)" stroke-width="2" fill="none" stroke-linecap="round" stroke-linejoin="round"/>
  <polygon points="38,12 42,16 38,16" fill="#138808"/>
  <!-- Brand text -->
  <text x="56" y="25" font-family="Inter, Arial, sans-serif" font-weight="800" font-size="18" fill="#FFFFFF">
    Bharat<tspan fill="#FF9933">Funded</tspan>
  </text>
  <text x="56" y="44" font-family="Inter, Arial, sans-serif" font-weight="600" font-size="13" fill="#888888" letter-spacing="3">
    TRADE
  </text>
  <rect x="56" y="49" width="40" height="2" rx="1" fill="#FF9933"/>
  <rect x="96" y="49" width="40" height="2" rx="1" fill="#FFFFFF" stroke="#ddd" stroke-width="0.2"/>
  <rect x="136" y="49" width="40" height="2" rx="1" fill="#138808"/>
</svg>
